# xmcd
#
# Track frame offsets:
#	150
#	11970
#	22967
#	32665
#	48877
#	61687
#	79725
#	99735
#	113392
#	129782
#	143612
#	154105
#	162840
#	179632
#	197705
#	216155
#	230042
#	245155
#	260452
#	277847
#
# Disc length: 3938
#
# Revision: 1
# Processed by: cddbd v1.5.1PL0 Copyright (c) Steve Scherf et al.
# Submitted via: dBpowerAMP V4.0
# Normalized: r0:TDELIM( - )
#
DISCID=090f6014
DTITLE=Various Artist - Simply Soul
DYEAR=1996
DGENRE=soul
TTITLE0=Maxine Brown - Oh no not my Baby
TTITLE1=Sam and Dave - You Don't know what you mean to me
TTITLE2=James Brown - Please, please, please (live)
TTITLE3=James Brown - I got the feeling (live)
TTITLE4=The Drifters - On Broadway
TTITLE5=Martha Reeves - Heatwave
TTITLE6=The Supremes - Stoned love
TTITLE7=Kim Weston - Dancing in the street
TTITLE8=The Contours - First I look at the purse
TTITLE9=The Marvelettes - Beachwood 4-5789
TTITLE10=The Drifters - Dance with me
TTITLE11=Gladys Knight and The Pips - If I ever should fall in love
TTITLE12=G.C. Cameron - Just my Imagination
TTITLE13=Scherrie Payne - Ain't no mountain high enough
TTITLE14=Hattie Littles - Touch me in the mourning
TTITLE15=The Contours - This old heart of mine
TTITLE16=The Velvettes - Needle in a haystack
TTITLE17=Sylvia May - My cherie amour
TTITLE18=Frances Nero - You are the sunshine of my life
TTITLE19=Scherrie Payne - I'm still waiting
EXTD=
EXTT0=
EXTT1=
EXTT2=
EXTT3=
EXTT4=
EXTT5=
EXTT6=
EXTT7=
EXTT8=
EXTT9=
EXTT10=
EXTT11=
EXTT12=
EXTT13=
EXTT14=
EXTT15=
EXTT16=
EXTT17=
EXTT18=
EXTT19=
PLAYORDER=
